<?xml version="1.0" encoding="utf-8"?>
<!-- Generator: Adobe Illustrator 27.2.0, SVG Export Plug-In . SVG Version: 6.00 Build 0)  -->
<svg version="1.1" id="Слой_1" xmlns="http://www.w3.org/2000/svg" xmlns:xlink="http://www.w3.org/1999/xlink" x="0px" y="0px"
	 viewBox="0 0 595.28 841.89" style="enable-background:new 0 0 595.28 841.89;" xml:space="preserve">
<style type="text/css">
	.st0{fill:none;stroke:#1D1D1B;stroke-width:7;stroke-miterlimit:10;}
	.st1{fill:none;stroke:#1D1D1B;stroke-width:4;stroke-miterlimit:10;}
	.st2{fill:none;stroke:#1D1D1B;stroke-width:5;stroke-miterlimit:10;}
	.st3{fill:none;stroke:#1D1D1B;stroke-width:6;stroke-linejoin:round;stroke-miterlimit:10;}
</style>
<circle class="st0" cx="91.17" cy="-81.86" r="20.94"/>
<path class="st1" d="M89.26-85.17L89.26-85.17c-1.86-0.4-3.07-2.54-2.7-4.78l18.26-111.09c0.37-2.24,2.17-3.72,4.03-3.32l0,0
	c1.86,0.4,3.07,2.54,2.7,4.78c-0.98,5.94-6.41,39.02-6.47,39.38c-4.39,26.7-9.63,58.59-11.79,71.71
	C93.28-88.27,93.14-86.8,89.26-85.17z"/>
<circle class="st2" cx="91.17" cy="-84.75" r="7.89"/>
<path class="st1" d="M105.37-207.24h35.27c1.93,0,3.5,1.57,3.5,3.5v0c0,1.93-1.57,3.5-3.5,3.5h-35.27c-1.93,0-3.5-1.57-3.5-3.5v0
	C101.87-205.68,103.44-207.24,105.37-207.24z"/>
<path class="st2" d="M92.02-184.73h4.59c1.66,0,3,1.34,3,3l0,0c0,1.66-1.34,3-3,3h-4.59c-1.66,0-3-1.34-3-3l0,0
	C89.02-183.39,90.36-184.73,92.02-184.73z"/>
<path class="st1" d="M75.7-192.56c0.8,0,5.16,0.06,8.54,3.56c2.74,2.83,3.16,6.16,3.24,7.17c-0.03,0.69-0.33,5.55-4.2,8.53
	c0,0-1.4,1.08-6.7,2.36c0,0-0.34,0.08-1.04,0c-0.08-0.01-0.24-0.03-0.35-0.15c-0.13-0.13-0.14-0.3-0.15-0.35
	c-1-10.22-0.66-13.63,0-20.45c0-0.05,0.02-0.23,0.15-0.35c0.07-0.07,0.16-0.11,0.35-0.15c0.35-0.07,0.69-0.07,1.04,0
	c0.2,0.04,0.28,0.08,0.35,0.15c0.13,0.13,0.14,0.3,0.15,0.35c0.13,1.34,3.73,11.23,0,20.45c-0.03,0.07-0.08,0.19-0.15,0.35"/>
<path class="st1" d="M127.28-123.45"/>
<path class="st1" d="M102.52-167.36"/>
<circle class="st0" cx="219.07" cy="-81.86" r="20.94"/>
<path class="st1" d="M222.44-93.15L222.44-93.15c-1.64-0.35-2.91-1.1-2.84-1.67l3.52-28.34c0.07-0.57,1.46-0.75,3.1-0.39h0
	c1.64,0.35,2.91,1.1,2.84,1.67c-0.19,1.52-1.24,9.95-1.25,10.05c-0.85,6.81-1.86,14.95-2.27,18.29
	C225.54-93.48,225.59-93.09,222.44-93.15z"/>
<circle class="st2" cx="221.1" cy="-84.75" r="7.89"/>
<path class="st1" d="M192.75-104.08L192.75-104.08c-1.9-0.17-3.42-1.05-3.4-1.96l0.99-45.18c0.02-0.91,1.57-1.51,3.47-1.33h0
	c1.9,0.17,3.42,1.05,3.4,1.96c-0.05,2.42-0.35,15.87-0.35,16.01c-0.24,10.86-0.52,23.83-0.64,29.16
	C196.24-105.32,196.32-104.72,192.75-104.08z"/>
<path class="st1" d="M104.42-160.82c11.2,18.68,22.41,37.36,33.61,56.04c0.48,0.88,1.55,2.53,3.55,3.79c2.96,1.87,5.97,1.62,6.9,1.5
	c11.57,0.35,23.14,0.7,34.71,1.05c8.77-13.45,17.53-26.89,26.3-40.34c2.07-0.29,16.15-2.19,23.25-0.65c2.53,0.55,3.82,1.46,4.6,2.54
	c1.32,1.82,1.14,4.04,1,5.01c-7.83,0-15.66,0-23.49,0l-3.57,8.43h24l-0.26,3.83l-28.34,1.79c-3.41,5.1-6.56,9.88-9.45,14.3
	c-2.49,3.82-5.53,8.5-8.96,13.86c-0.93,1.46-1.71,2.68-2.27,3.56c-1.7,0-3.4,0-5.11,0c-12.26,0-24.51,0-36.77,0
	c-1.57-0.2-3.99-0.71-6.64-2.11c-2.73-1.44-4.56-3.22-5.62-4.43c-9.15-16.2-18.3-32.39-27.46-48.59V-160.82z"/>
<path class="st1" d="M210.01-152.58c1.02-2.55-0.72-6.67-3.32-8.24c-1.57-0.95-3.02-0.71-7.4-0.42c-2.55,0.17-5.92,0.34-9.93,0.42
	c-3.27,1.12-6.54,2.24-9.82,3.37c-3.83,1.75-6.24,3.44-6.04,4.87C174.18-147.55,206.79-144.52,210.01-152.58z"/>
<circle class="st2" cx="194.93" cy="-198.1" r="27.19"/>
<polygon class="st3" points="195.61,-215.37 194.89,-201.16 202.77,-203.76 193.86,-180.83 194.54,-194.19 187.1,-192.15 "/>
</svg>
